PathFileType	4	(X/Y/Z)	D:\MotionData\NordSprintingStudy\Test 2\Edited\COP_Right_Board_FP3000001.trc
DataRate	CameraRate	NumFrames	NumMarkers	Units	OrigDataRate	OrigDataStartFrame	OrigNumFrames
200.00	200.00	     54	5	mm	200.00	1	     17704
Frame#	Time	M1			M2			M3			M4			M5			
		X1	Y1	Z1	X2	Y2	Z2	X3	Y3	Z3	X4	Y4	Z4	X5	Y5	Z5	

1	0.000	1586.42126	2233.10791	45.69867	1608.66479	1913.61365	70.45319	1409.28833	1899.59595	71.28836	1010.20416	1871.19739	75.57972	987.93365	2191.08203	50.71387	
2	0.005	1586.45361	2233.12769	45.69141	1608.68689	1913.64136	70.39279	1409.27075	1899.60278	71.28510	1010.26270	1871.21997	75.53906	987.94220	2191.06982	50.71484	
3	0.010	1586.47095	2233.11865	45.66878	1608.67432	1913.63281	70.46776	1409.29187	1899.59204	71.24367	1010.24957	1871.20825	75.55264	987.96826	2191.07715	50.67235	
4	0.015	1586.41199	2233.13086	45.72978	1608.74377	1913.64148	70.32915	1409.27942	1899.59851	71.28876	1010.33429	1871.21191	75.48108	987.94800	2191.07349	50.72267	
5	0.020	1586.45129	2233.12549	45.67795	1608.73413	1913.64453	70.35183	1409.32751	1899.62427	71.22571	1010.31757	1871.24194	75.48746	987.95532	2191.06494	50.65400	
6	0.025	1586.35693	2233.08350	45.79937	1608.74634	1913.63403	70.36132	1409.27563	1899.60327	71.32513	1010.28040	1871.20850	75.49961	987.91553	2191.06567	50.75251	
7	0.030	1586.50586	2233.14697	45.63341	1608.70239	1913.62366	70.44696	1409.32141	1899.61597	71.23483	1010.25916	1871.20203	75.56155	987.99347	2191.08936	50.66541	
8	0.035	1586.44055	2233.10938	45.73568	1608.76050	1913.64539	70.37267	1409.32910	1899.61536	71.28490	1010.32672	1871.19849	75.46970	987.96838	2191.07568	50.70149	
9	0.040	1586.43567	2233.12085	45.74588	1608.73645	1913.63904	70.40881	1409.32813	1899.59680	71.29710	1010.30487	1871.18530	75.51545	987.92841	2191.05054	50.75245	
10	0.045	1586.49548	2233.09692	45.68814	1608.68140	1913.62158	70.47285	1409.29968	1899.59412	71.24910	1010.23853	1871.19128	75.59419	987.96228	2191.06543	50.67244	
11	0.050	1586.35059	2233.09814	45.77073	1608.73975	1913.62976	70.37160	1409.25952	1899.59229	71.31153	1010.28961	1871.21155	75.50295	987.91327	2191.07007	50.76928	
12	0.055	1586.37048	2233.10083	45.77444	1608.69482	1913.60339	70.44080	1409.30261	1899.65149	71.22324	1010.26874	1871.18835	75.54755	987.93738	2191.05225	50.73524	
13	0.060	1586.22095	2233.03760	45.96468	1608.68958	1913.61096	70.43287	1409.19836	1899.54810	71.41254	1010.26746	1871.19556	75.55458	987.86188	2191.01953	50.81071	
14	0.065	1586.35229	2233.07617	45.80669	1608.58423	1913.58838	70.56483	1409.23792	1899.58044	71.35366	1010.19696	1871.17773	75.66341	987.89215	2191.06250	50.79195	
15	0.070	1586.32495	2233.07617	45.86222	1608.66345	1913.60522	70.46354	1409.19751	1899.57227	71.41571	1010.24567	1871.18945	75.61200	987.87854	2191.04297	50.83294	
16	0.075	1586.29419	2233.07568	45.87770	1608.63489	1913.60620	70.50838	1409.18542	1899.58496	71.42664	1010.21777	1871.17834	75.62752	987.79346	2191.02393	50.88818	
17	0.080	1586.22046	2233.05786	45.96580	1608.61902	1913.60730	70.54414	1409.11768	1899.55847	71.47138	1010.18707	1871.18103	75.66727	987.83679	2191.03906	50.90303	
18	0.085	1586.18176	2233.02026	45.98482	1608.60791	1913.61401	70.53474	1409.12561	1899.56360	71.47398	1010.18512	1871.19214	75.63323	987.77777	2191.02368	50.90074	
19	0.090	1586.23450	2233.03564	45.90059	1608.56274	1913.59546	70.58829	1409.20581	1899.63452	71.31532	1010.17871	1871.18701	75.67193	987.85669	2191.03442	50.85758	
20	0.095	1586.30627	2233.09473	45.82919	1608.53894	1913.60596	70.56264	1409.18506	1899.58032	71.39769	1010.16895	1871.17700	75.66863	987.83868	2191.05322	50.84373	
21	0.100	1586.28723	2233.08350	45.87873	1608.55554	1913.58447	70.50799	1409.16235	1899.57959	71.41046	1010.20520	1871.18640	75.63271	987.84033	2191.05957	50.86425	
22	0.105	1586.23706	2233.06641	45.90677	1608.62195	1913.61584	70.49630	1409.17151	1899.57922	71.41485	1010.18530	1871.19556	75.61577	987.81720	2191.05835	50.84222	
23	0.110	1586.28088	2233.07739	45.86425	1608.63843	1913.60730	70.50021	1409.17517	1899.56055	71.41595	1010.18665	1871.19836	75.62210	987.81226	2191.05469	50.89510	
24	0.115	1586.20654	2233.04688	45.93016	1608.63245	1913.59180	70.48582	1409.15771	1899.56873	71.43006	1010.21283	1871.21240	75.59274	987.81097	2191.03540	50.87929	
25	0.120	1586.34326	2233.07153	45.80971	1608.60767	1913.60657	70.53048	1409.24976	1899.57178	71.33080	1010.19830	1871.20264	75.64958	987.91693	2191.07959	50.76055	
26	0.125	1586.36267	2233.08740	45.77646	1608.65259	1913.63184	70.44608	1409.23193	1899.58118	71.37000	1010.23651	1871.19543	75.59099	987.89105	2191.04346	50.76679	
27	0.130	1586.33325	2233.08252	45.78591	1608.67896	1913.61462	70.43610	1409.25574	1899.58728	71.33434	1010.28656	1871.18591	75.56183	987.91858	2191.07202	50.72872	
28	0.135	1586.26819	2233.08350	45.87683	1608.69360	1913.63049	70.40874	1409.20020	1899.58252	71.38098	1010.28003	1871.21875	75.50836	987.82501	2191.03027	50.83424	
29	0.140	1586.37756	2233.10034	45.76695	1608.72241	1913.61694	70.38779	1409.31189	1899.59497	71.30560	1010.31378	1871.20105	75.50476	987.92316	2191.05273	50.74319	
30	0.145	1586.43848	2233.11890	45.73398	1608.74536	1913.62732	70.39351	1409.27136	1899.60242	71.30746	1010.27704	1871.20703	75.53098	987.90363	2191.06396	50.77335	
31	0.150	1586.50610	2233.14307	45.64675	1608.68286	1913.62781	70.44809	1409.37061	1899.60303	71.23166	1010.24963	1871.20056	75.55758	987.97375	2191.05859	50.65933	
32	0.155	1586.50867	2233.17163	45.65866	1608.77039	1913.63721	70.34955	1409.37061	1899.62122	71.26572	1010.30853	1871.20984	75.47339	987.93561	2191.05786	50.72582	
33	0.160	1586.42615	2233.10132	45.74190	1608.75269	1913.63196	70.37693	1409.35046	1899.61316	71.26633	1010.31616	1871.21423	75.49641	987.90289	2191.03125	50.73632	
34	0.165	1586.50122	2233.11499	45.65742	1608.72534	1913.62402	70.41453	1409.30530	1899.60229	71.27386	1010.29755	1871.22156	75.51600	987.92816	2191.06152	50.71427	
35	0.170	1586.37683	2233.10303	45.81770	1608.74463	1913.63477	70.36687	1409.27893	1899.58313	71.33207	1010.31628	1871.21008	75.48944	987.92279	2191.07813	50.76741	
36	0.175	1586.46191	2233.11841	45.68482	1608.71240	1913.63379	70.41820	1409.33997	1899.59985	71.26324	1010.23688	1871.20667	75.56584	987.97107	2191.07520	50.71194	
37	0.180	1586.42700	2233.10132	45.73649	1608.72571	1913.62256	70.40511	1409.32568	1899.66455	71.16811	1010.29565	1871.20032	75.50352	987.89496	2191.04321	50.74614	
38	0.185	1586.31567	2233.05396	45.83301	1608.70264	1913.63696	70.40389	1409.22400	1899.58093	71.35598	1010.26904	1871.20422	75.52201	987.87604	2191.06079	50.82629	
39	0.190	1586.38049	2233.09277	45.74654	1608.63660	1913.60999	70.46059	1409.29395	1899.64539	71.18502	1010.21460	1871.18933	75.59776	987.94952	2191.06494	50.70724	
40	0.195	1586.38074	2233.10352	45.78754	1608.62439	1913.60522	70.49245	1409.28809	1899.57910	71.29523	1010.19617	1871.17859	75.62475	987.90558	2191.05225	50.74503	
41	0.200	1586.28210	2233.06030	45.83390	1608.66370	1913.60205	70.46049	1409.22168	1899.57434	71.36559	1010.23230	1871.18408	75.58666	987.83020	2191.02783	50.84347	
42	0.205	1586.27820	2233.06250	45.87288	1608.63843	1913.60803	70.48562	1409.17749	1899.55615	71.40315	1010.21021	1871.18298	75.61770	987.87531	2191.06079	50.81831	
43	0.210	1586.27173	2233.03979	45.88406	1608.57520	1913.58911	70.55698	1409.15063	1899.57166	71.41512	1010.18524	1871.17847	75.64102	987.78839	2191.05420	50.89166	
44	0.215	1586.22266	2233.03955	45.96623	1608.61572	1913.60718	70.53062	1409.14563	1899.61194	71.40080	1010.19214	1871.18726	75.64669	987.74677	2191.00635	50.94859	
45	0.220	1586.23804	2233.01904	45.92751	1608.55676	1913.62048	70.59135	1409.17773	1899.53723	71.41292	1010.14404	1871.17139	75.71868	987.84656	2191.02124	50.88167	
46	0.225	1586.27820	2233.08472	45.89421	1608.57458	1913.60242	70.55553	1409.17371	1899.56750	71.43124	1010.12250	1871.14905	75.68749	987.81891	2191.01636	50.90140	
47	0.230	1586.20337	2233.03198	45.97109	1608.56079	1913.60156	70.53676	1409.15857	1899.56458	71.44299	1010.20752	1871.19250	75.65329	987.75513	2190.99585	50.94621	
48	0.235	1586.26611	2233.07471	45.85443	1608.58533	1913.62671	70.52332	1409.18054	1899.56677	71.42869	1010.17267	1871.17151	75.66415	987.84070	2191.03516	50.88965	
49	0.240	1586.25195	2233.03857	45.90275	1608.60986	1913.62671	70.52898	1409.17444	1899.56812	71.43756	1010.17712	1871.19849	75.66170	987.81671	2191.03687	50.90534	
50	0.245	1586.28845	2233.06348	45.89070	1608.61499	1913.61389	70.52594	1409.21936	1899.62341	71.31160	1010.19922	1871.19702	75.62011	987.85236	2191.04639	50.83493	
51	0.250	1586.23999	2233.04858	45.89906	1608.61816	1913.61340	70.51121	1409.18726	1899.58691	71.40969	1010.22089	1871.18665	75.60941	987.81970	2191.02881	50.87947	
52	0.255	1586.23474	2233.03101	45.91643	1608.66138	1913.61670	70.44171	1409.16516	1899.56396	71.41790	1010.24005	1871.20569	75.55173	987.80078	2191.01880	50.87626	
53	0.260	1586.35962	2233.07397	45.79459	1608.59729	1913.61096	70.52720	1409.27441	1899.59326	71.29493	1010.22217	1871.20398	75.61192	987.93011	2191.07031	50.75985	
54	0.265	1586.37817	2233.07300	45.75721	1608.70471	1913.61145	70.40200	1409.28174	1899.58557	71.31551	1010.24811	1871.17993	75.55426	987.90857	2191.03540	50.76906	
